<svg xmlns="http://www.w3.org/2000/svg" xmlns:xlink="http://www.w3.org/1999/xlink"
     viewBox="0 0 1600 1060" width="1600" height="1060"
     font-family="system-ui, -apple-system, 'Segoe UI', sans-serif"
     role="img" aria-labelledby="diagram-title diagram-desc" focusable="false">
  <title id="diagram-title">connetto-rs architecture</title>
  <desc id="diagram-desc">Architecture diagram showing all components, status colors, and data flows for connetto-rs.</desc>
  <defs>
    <!-- Arrow marker -->
    <marker id="arrow" viewBox="0 0 10 7" refX="10" refY="3.5" markerWidth="8" markerHeight="6" orient="auto-start-reverse">
      <polygon points="0 0, 10 3.5, 0 7" fill="#555" />
    </marker>
    <marker id="arrow-blue" viewBox="0 0 10 7" refX="10" refY="3.5" markerWidth="8" markerHeight="6" orient="auto-start-reverse">
      <polygon points="0 0, 10 3.5, 0 7" fill="#42A5F5" />
    </marker>
    <marker id="arrow-green" viewBox="0 0 10 7" refX="10" refY="3.5" markerWidth="8" markerHeight="6" orient="auto-start-reverse">
      <polygon points="0 0, 10 3.5, 0 7" fill="#4CAF50" />
    </marker>
    <!-- Bidirectional arrow -->
    <marker id="arrow-bidi" viewBox="0 0 10 7" refX="10" refY="3.5" markerWidth="8" markerHeight="6" orient="auto-start-reverse">
      <polygon points="0 0, 10 3.5, 0 7" fill="#78909C" />
    </marker>
    <marker id="arrow-red" viewBox="0 0 10 7" refX="10" refY="3.5" markerWidth="8" markerHeight="6" orient="auto-start-reverse">
      <polygon points="0 0, 10 3.5, 0 7" fill="#EF5350" />
    </marker>
    <marker id="arrow-yellow" viewBox="0 0 10 7" refX="10" refY="3.5" markerWidth="8" markerHeight="6" orient="auto-start-reverse">
      <polygon points="0 0, 10 3.5, 0 7" fill="#F9A825" />
    </marker>
    <marker id="arrow-purple" viewBox="0 0 10 7" refX="10" refY="3.5" markerWidth="8" markerHeight="6" orient="auto-start-reverse">
      <polygon points="0 0, 10 3.5, 0 7" fill="#7E57C2" />
    </marker>
    <marker id="arrow-orange" viewBox="0 0 10 7" refX="10" refY="3.5" markerWidth="8" markerHeight="6" orient="auto-start-reverse">
      <polygon points="0 0, 10 3.5, 0 7" fill="#FF8F00" />
    </marker>
    <marker id="arrow-teal" viewBox="0 0 10 7" refX="10" refY="3.5" markerWidth="8" markerHeight="6" orient="auto-start-reverse">
      <polygon points="0 0, 10 3.5, 0 7" fill="#26A69A" />
    </marker>
  </defs>

  <!-- Background -->
  <rect width="1600" height="1060" fill="#FAFAFA" rx="4" />

  <!-- ==================== STATUS LEGEND (top-right) ==================== -->
  <g transform="translate(1340, 20)">
    <rect width="240" height="130" rx="6" fill="#fff" stroke="#E0E0E0" stroke-width="1" />
    <text x="120" y="22" text-anchor="middle" font-size="12" font-weight="600" fill="#444">Status Legend</text>
    <g transform="translate(12, 34)">
      <rect width="216" height="20" rx="3" fill="#E8F5E9" stroke="#4CAF50" stroke-width="0 0 0 3" />
      <rect width="4" height="20" rx="1" fill="#4CAF50" />
      <text x="14" y="14" font-size="11" fill="#2E7D32">Published &amp; ready</text>
    </g>
    <g transform="translate(12, 58)">
      <rect width="216" height="20" rx="3" fill="#E3F2FD" stroke="#42A5F5" stroke-width="0 0 0 3" />
      <rect width="4" height="20" rx="1" fill="#42A5F5" />
      <text x="14" y="14" font-size="11" fill="#1565C0">Exists, in development</text>
    </g>
    <g transform="translate(12, 82)">
      <rect width="216" height="20" rx="3" fill="#FFF3E0" stroke="#FFA726" stroke-width="0 0 0 3" />
      <rect width="4" height="20" rx="1" fill="#FFA726" />
      <text x="14" y="14" font-size="11" fill="#E65100">Planned / research only</text>
    </g>
    <g transform="translate(12, 106)">
      <rect width="216" height="20" rx="3" fill="#FFEBEE" stroke="#EF5350" stroke-width="0 0 0 3" />
      <rect width="4" height="20" rx="1" fill="#EF5350" />
      <text x="14" y="14" font-size="11" fill="#C62828">Not started, no code</text>
    </g>
  </g>

  <!-- ==================== BACKEND ZONE ==================== -->
  <g id="backend-zone">
    <!-- Zone background -->
    <rect x="20" y="20" width="850" height="992" rx="10" fill="#F5F5F5" stroke="#BDBDBD" stroke-width="1.5" />
    <text x="435" y="46" text-anchor="middle" font-size="15" font-weight="700" fill="#555">Backend</text>

    <!-- ===== PostgreSQL Mesh ===== -->
    <rect x="35" y="60" width="460" height="440" rx="8" fill="#ECEFF1" stroke="#90A4AE" stroke-width="1" />
    <text x="265" y="82" text-anchor="middle" font-size="13" font-weight="600" fill="#455A64">PostgreSQL Mesh</text>
    <text x="265" y="96" text-anchor="middle" font-size="10" fill="#78909C">Bidirectional Logical Replication</text>

    <!-- PG Instance 1 (top-left) -->
    <g transform="translate(75, 163)">
      <rect width="180" height="100" rx="6" fill="#fff" stroke="#4CAF50" stroke-width="1.5" />
      <rect width="4" height="100" rx="1" fill="#4CAF50" />
      <text x="90" y="20" text-anchor="middle" font-size="12" font-weight="600" fill="#333">PG Instance 1</text>
      <text x="90" y="36" text-anchor="middle" font-size="10" font-family="monospace" fill="#4CAF50">PostgreSQL</text>
      <line x1="10" y1="44" x2="170" y2="44" stroke="#E0E0E0" />
      <text x="14" y="60" font-size="10" fill="#555">App tables, RLS, oplog</text>
      <text x="14" y="76" font-size="10" font-family="monospace" fill="#555">auth_events</text>
      <text x="14" y="92" font-size="10" fill="#78909C">WAL / CDC output →</text>
    </g>

    <!-- PG Instance 2 (top-right) -->
    <g transform="translate(275, 163)">
      <rect width="180" height="100" rx="6" fill="#fff" stroke="#4CAF50" stroke-width="1.5" />
      <rect width="4" height="100" rx="1" fill="#4CAF50" />
      <text x="90" y="20" text-anchor="middle" font-size="12" font-weight="600" fill="#333">PG Instance 2</text>
      <text x="90" y="36" text-anchor="middle" font-size="10" font-family="monospace" fill="#4CAF50">PostgreSQL</text>
      <line x1="10" y1="44" x2="170" y2="44" stroke="#E0E0E0" />
      <text x="14" y="60" font-size="10" fill="#555">App tables, RLS, oplog</text>
      <text x="14" y="76" font-size="10" font-family="monospace" fill="#555">auth_events</text>
      <text x="14" y="92" font-size="10" fill="#78909C">WAL / CDC output →</text>
    </g>

    <!-- PG Instance N (bottom-center) -->
    <g transform="translate(175, 337)">
      <rect width="180" height="100" rx="6" fill="#fff" stroke="#4CAF50" stroke-width="1.5" />
      <rect width="4" height="100" rx="1" fill="#4CAF50" />
      <text x="90" y="20" text-anchor="middle" font-size="12" font-weight="600" fill="#333">PG Instance N…</text>
      <text x="90" y="36" text-anchor="middle" font-size="10" font-family="monospace" fill="#4CAF50">PostgreSQL</text>
      <line x1="10" y1="44" x2="170" y2="44" stroke="#E0E0E0" />
      <text x="14" y="60" font-size="10" fill="#555">App tables, RLS, oplog</text>
      <text x="14" y="76" font-size="10" font-family="monospace" fill="#555">auth_events</text>
      <text x="14" y="92" font-size="10" fill="#78909C">WAL / CDC output →</text>
    </g>

    <!-- Bidirectional replication arrows (equilateral triangle) -->
    <!-- 1 ↔ 2 (horizontal) -->
    <line x1="255" y1="213" x2="275" y2="213" stroke="#78909C" stroke-width="1.5" marker-start="url(#arrow-bidi)" marker-end="url(#arrow-bidi)" />
    <text x="265" y="206" text-anchor="middle" font-size="8" fill="#78909C">⑧</text>
    <!-- 1 ↔ N (diagonal) -->
    <line x1="175" y1="263" x2="255" y2="337" stroke="#78909C" stroke-width="1" stroke-dasharray="4 2" marker-start="url(#arrow-bidi)" marker-end="url(#arrow-bidi)" />
    <!-- 2 ↔ N (diagonal) -->
    <line x1="355" y1="263" x2="275" y2="337" stroke="#78909C" stroke-width="1" stroke-dasharray="4 2" marker-start="url(#arrow-bidi)" marker-end="url(#arrow-bidi)" />

    <!-- PG mesh → connetto-server: WAL events -->
    <line x1="495" y1="300" x2="537" y2="300" stroke="#4CAF50" stroke-width="1.5" marker-end="url(#arrow-green)" />
    <text x="516" y="294" text-anchor="middle" font-size="9" fill="#4CAF50">WAL</text>
    <text x="516" y="306" text-anchor="middle" font-size="9" fill="#4CAF50">events</text>
    <!-- connetto-server → PG mesh: queries -->
    <line x1="537" y1="340" x2="495" y2="340" stroke="#EF5350" stroke-width="1.5" marker-end="url(#arrow-red)" />
    <text x="516" y="354" text-anchor="middle" font-size="9" fill="#EF5350">query</text>

    <!-- ===== External Services ===== -->
    <g transform="translate(35, 510)">
      <rect width="460" height="180" rx="8" fill="#ECEFF1" stroke="#90A4AE" stroke-width="1" />
      <text x="230" y="20" text-anchor="middle" font-size="13" font-weight="600" fill="#455A64">External Services</text>

      <!-- OpenFGA -->
      <g transform="translate(15, 34)">
        <rect width="200" height="56" rx="5" fill="#fff" stroke="#4CAF50" stroke-width="1.5" />
        <rect width="4" height="56" rx="1" fill="#4CAF50" />
        <text x="100" y="22" text-anchor="middle" font-size="12" font-weight="600" fill="#333">OpenFGA</text>
        <text x="100" y="40" text-anchor="middle" font-size="10" fill="#78909C">Authorization service</text>
      </g>

      <!-- rls2fga moved inside connetto-server -->

      <!-- Log aggregator -->
      <g transform="translate(15, 106)">
        <rect width="200" height="56" rx="5" fill="#fff" stroke="#4CAF50" stroke-width="1.5" />
        <rect width="4" height="56" rx="1" fill="#4CAF50" />
        <text x="100" y="22" text-anchor="middle" font-size="12" font-weight="600" fill="#333">Grafana / Loki</text>
        <text x="100" y="40" text-anchor="middle" font-size="10" fill="#78909C">Log aggregation &amp; dashboards</text>
      </g>
    </g>

    <!-- pg-walstream and pg2sqlite moved inside connetto-server -->

  </g>

  <!-- ==================== SERVER COMPONENTS (within Backend) ==================== -->
  <g id="server-zone">

    <!-- ===== connetto-server ===== -->
    <rect x="537" y="60" width="326" height="666" rx="8" fill="#FFEBEE" stroke="#EF5350" stroke-width="1.5" />
    <rect x="537" y="60" width="5" height="666" rx="2" fill="#EF5350" />
    <text x="700" y="82" text-anchor="middle" font-size="13" font-weight="600" fill="#C62828">connetto-server</text>
    <text x="700" y="96" text-anchor="middle" font-size="10" fill="#EF5350">not started</text>

    <!-- ===== sqlite-diff-rs ===== -->
    <g transform="translate(545, 108)">
      <rect width="310" height="70" rx="6" fill="#fff" stroke="#42A5F5" stroke-width="1.5" />
      <rect width="4" height="70" rx="1" fill="#42A5F5" />
      <text x="155" y="22" text-anchor="middle" font-size="12" font-weight="600" fill="#333">sqlite-diff-rs</text>
      <text x="155" y="38" text-anchor="middle" font-size="10" font-family="monospace" fill="#42A5F5">unpublished</text>
      <text x="155" y="54" text-anchor="middle" font-size="10" fill="#78909C">PatchSet binary format (no SQLite needed)</text>
    </g>

    <!-- ===== subql ===== -->
    <rect x="545" y="190" width="310" height="400" rx="8" fill="#E3F2FD" stroke="#42A5F5" stroke-width="1.5" />
    <rect x="545" y="190" width="5" height="400" rx="2" fill="#42A5F5" />
    <text x="700" y="210" text-anchor="middle" font-size="13" font-weight="600" fill="#1565C0">subql</text>
    <text x="700" y="224" text-anchor="middle" font-size="10" fill="#42A5F5">unpublished</text>

    <!-- Subscription Registry -->
    <g transform="translate(558, 236)">
      <rect width="284" height="44" rx="5" fill="#fff" stroke="#42A5F5" stroke-width="1" />
      <rect width="3" height="44" rx="1" fill="#42A5F5" />
      <text x="142" y="18" text-anchor="middle" font-size="11" font-weight="500" fill="#333">Subscription Registry &amp; Predicate Evaluator</text>
      <text x="142" y="34" text-anchor="middle" font-size="9" fill="#888">WHERE clause fast-path + SQL re-execution fallback</text>
    </g>

    <!-- Accumulator State (IVM) -->
    <g transform="translate(558, 292)">
      <rect width="284" height="70" rx="5" fill="#fff" stroke="#EF5350" stroke-width="1" />
      <rect width="3" height="70" rx="1" fill="#EF5350" />
      <text x="142" y="18" text-anchor="middle" font-size="11" font-weight="500" fill="#333">Accumulator State (IVM)</text>
      <text x="142" y="34" text-anchor="middle" font-size="9" fill="#EF5350">not started</text>
      <text x="142" y="48" text-anchor="middle" font-size="9" fill="#EF5350">COUNT, SUM, AVG, GROUP BY</text>
      <text x="142" y="62" text-anchor="middle" font-size="9" fill="#EF5350">MIN/MAX, DISTINCT, HAVING, UPDATE transitions</text>
    </g>

    <!-- Re-execution Fallback -->
    <g transform="translate(558, 374)">
      <rect width="284" height="36" rx="5" fill="#fff" stroke="#EF5350" stroke-width="1" />
      <rect width="3" height="36" rx="1" fill="#EF5350" />
      <text x="142" y="14" text-anchor="middle" font-size="11" font-weight="500" fill="#333">Re-execution Fallback</text>
      <text x="142" y="28" text-anchor="middle" font-size="9" fill="#EF5350">not started · rate-limited SQL for complex predicates/JOINs</text>
    </g>

    <!-- Per-session cursor + pending buffer -->
    <g transform="translate(558, 422)">
      <rect width="284" height="44" rx="5" fill="#fff" stroke="#EF5350" stroke-width="1" />
      <rect width="3" height="44" rx="1" fill="#EF5350" />
      <text x="142" y="18" text-anchor="middle" font-size="11" font-weight="500" fill="#333">Per-session Cursor &amp; Pending Buffer</text>
      <text x="142" y="34" text-anchor="middle" font-size="9" fill="#EF5350">not started · LSN tracking, PatchSet buffering for reconnect</text>
    </g>

    <!-- OpenFGA SDK integration -->
    <g transform="translate(558, 478)">
      <rect width="284" height="36" rx="5" fill="#fff" stroke="#4CAF50" stroke-width="1" />
      <rect width="3" height="36" rx="1" fill="#4CAF50" />
      <text x="142" y="14" text-anchor="middle" font-size="11" font-weight="500" fill="#333">OpenFGA SDK Integration</text>
      <text x="142" y="28" text-anchor="middle" font-size="9" fill="#888">batch check, cache TTL, session invalidation</text>
    </g>

    <!-- pg-walstream (inside subql) -->
    <g transform="translate(558, 526)">
      <rect width="284" height="50" rx="5" fill="#fff" stroke="#4CAF50" stroke-width="1" />
      <rect width="3" height="50" rx="1" fill="#4CAF50" />
      <text x="142" y="18" text-anchor="middle" font-size="11" font-weight="600" fill="#333">pg-walstream</text>
      <text x="142" y="34" text-anchor="middle" font-size="9" fill="#4CAF50">v0.5.1 · crates.io · WAL streaming</text>
    </g>

    <!-- Arrow: subql OpenFGA → backend OpenFGA -->
    <line x1="545" y1="496" x2="495" y2="576" stroke="#42A5F5" stroke-width="1.5" stroke-dasharray="4 2" marker-end="url(#arrow-blue)" />
    <text x="510" y="540" text-anchor="middle" font-size="8" fill="#42A5F5">⑤ FGA check</text>

    <!-- ===== pg2sqlite ===== -->
    <g transform="translate(550, 602)">
      <rect width="304" height="50" rx="6" fill="#fff" stroke="#42A5F5" stroke-width="1.5" />
      <rect width="4" height="50" rx="1" fill="#42A5F5" />
      <text x="152" y="20" text-anchor="middle" font-size="11" font-weight="600" fill="#333">pg2sqlite</text>
      <text x="152" y="36" text-anchor="middle" font-size="9" fill="#42A5F5">unpublished · PG→SQLite schema translation</text>
    </g>

    <!-- ===== rls2fga ===== -->
    <g transform="translate(550, 664)">
      <rect width="304" height="50" rx="6" fill="#fff" stroke="#42A5F5" stroke-width="1.5" />
      <rect width="4" height="50" rx="1" fill="#42A5F5" />
      <text x="152" y="20" text-anchor="middle" font-size="11" font-weight="600" fill="#333">rls2fga</text>
      <text x="152" y="36" text-anchor="middle" font-size="9" fill="#42A5F5">RLS → FGA model translator · working, git-only dep</text>
    </g>

    <!-- Arrow: rls2fga → OpenFGA (external) -->
    <line x1="550" y1="689" x2="495" y2="576" stroke="#42A5F5" stroke-width="1.5" stroke-dasharray="4 2" marker-end="url(#arrow-blue)" />
    <text x="512" y="640" text-anchor="middle" font-size="8" fill="#42A5F5">⑤ FGA model</text>

  </g>

  <!-- ==================== TRANSPORT LAYER ==================== -->
  <g id="transport-layer">
    <!-- Vertical transport column -->
    <rect x="880" y="60" width="90" height="952" rx="6" fill="#FFFDE7" stroke="#FFD54F" stroke-width="1" stroke-dasharray="6 3" />
    <text x="925" y="82" text-anchor="middle" font-size="11" font-weight="600" fill="#F9A825">Transport</text>
    <text x="925" y="96" text-anchor="middle" font-size="10" font-family="monospace" fill="#F9A825">wss://</text>

    <!-- Transport labels -->
    <text x="925" y="180" text-anchor="middle" font-size="8" fill="#F57F17">binary frames</text>
    <text x="925" y="192" text-anchor="middle" font-size="8" fill="#F57F17">PatchSet + Zstd</text>
    <text x="925" y="220" text-anchor="middle" font-size="8" fill="#F57F17">text frames</text>
    <text x="925" y="232" text-anchor="middle" font-size="8" fill="#F57F17">MessagePack ctrl</text>
    <text x="925" y="260" text-anchor="middle" font-size="8" fill="#F57F17">JSON aggregates</text>

    <!-- Bidirectional arrows through transport -->
    <line x1="880" y1="300" x2="880" y2="300" stroke="#F9A825" stroke-width="0" />
    <!-- Server → Native client -->
    <line x1="870" y1="320" x2="870" y2="320" stroke="#F9A825" stroke-width="1.5" />
    <!-- Server → WASM client -->
    <line x1="870" y1="600" x2="870" y2="600" stroke="#F9A825" stroke-width="1.5" />
  </g>

  <!-- ==================== NATIVE CLIENT ZONE ==================== -->
  <g id="native-client-zone">
    <!-- Zone background -->
    <rect x="980" y="20" width="600" height="440" rx="10" fill="#FFF8E1" stroke="#FFB74D" stroke-width="1.5" />
    <text x="1280" y="46" text-anchor="middle" font-size="15" font-weight="700" fill="#555">Native Client (Dioxus App)</text>
    <text x="1280" y="62" text-anchor="middle" font-size="10" fill="#EF5350">connetto-client · not started</text>

    <!-- ===== ConnettoConnection ===== -->
    <rect x="995" y="74" width="570" height="218" rx="8" fill="#FFEBEE" stroke="#EF5350" stroke-width="1.5" />
    <rect x="995" y="74" width="5" height="218" rx="2" fill="#EF5350" />
    <text x="1280" y="96" text-anchor="middle" font-size="13" font-weight="600" fill="#C62828">ConnettoConnection</text>
    <text x="1280" y="110" text-anchor="middle" font-size="10" fill="#EF5350">custom Diesel connection wrapper</text>

    <!-- Diesel SQLite hooks PR #4969 -->
    <g transform="translate(1008, 120)">
      <rect width="268" height="64" rx="5" fill="#fff" stroke="#42A5F5" stroke-width="1" />
      <rect width="3" height="64" rx="1" fill="#42A5F5" />
      <text x="134" y="16" text-anchor="middle" font-size="11" font-weight="500" fill="#333">Diesel PR #4969</text>
      <text x="134" y="30" text-anchor="middle" font-size="9" fill="#42A5F5">SQLite hooks (open, not merged)</text>
      <text x="134" y="44" text-anchor="middle" font-size="9" fill="#888">on_insert / on_update / on_delete → UI</text>
      <text x="134" y="56" text-anchor="middle" font-size="9" fill="#888">on_commit / on_rollback → batch</text>
    </g>

    <!-- Diesel PR #4976 -->
    <g transform="translate(1288, 120)">
      <rect width="268" height="34" rx="5" fill="#fff" stroke="#42A5F5" stroke-width="1" />
      <rect width="3" height="34" rx="1" fill="#42A5F5" />
      <text x="134" y="14" text-anchor="middle" font-size="11" font-weight="500" fill="#333">Diesel PR #4976</text>
      <text x="134" y="28" text-anchor="middle" font-size="9" fill="#42A5F5">sqlite3_db_config security hardening</text>
    </g>

    <!-- Diesel PR #4975 -->
    <g transform="translate(1288, 162)">
      <rect width="268" height="34" rx="5" fill="#fff" stroke="#42A5F5" stroke-width="1" />
      <rect width="3" height="34" rx="1" fill="#42A5F5" />
      <text x="134" y="14" text-anchor="middle" font-size="11" font-weight="500" fill="#333">Diesel PR #4975</text>
      <text x="134" y="28" text-anchor="middle" font-size="9" fill="#42A5F5">sqlite3_limit API</text>
    </g>

    <!-- Aggregate routing -->
    <g transform="translate(1008, 196)">
      <rect width="268" height="36" rx="5" fill="#fff" stroke="#EF5350" stroke-width="1" />
      <rect width="3" height="36" rx="1" fill="#EF5350" />
      <text x="134" y="14" text-anchor="middle" font-size="10" font-weight="500" fill="#333">Aggregate query routing</text>
      <text x="134" y="28" text-anchor="middle" font-size="9" font-family="monospace" fill="#888">→ _connetto_aggregates</text>
    </g>

    <!-- Mutation interception -->
    <g transform="translate(1008, 244)">
      <rect width="268" height="36" rx="5" fill="#fff" stroke="#EF5350" stroke-width="1" />
      <rect width="3" height="36" rx="1" fill="#EF5350" />
      <text x="134" y="14" text-anchor="middle" font-size="10" font-weight="500" fill="#333">Mutation interception</text>
      <text x="134" y="28" text-anchor="middle" font-size="9" font-family="monospace" fill="#888">→ _connetto_pending_ops</text>
    </g>

    <!-- Diesel PR #4993 in right column -->
    <g transform="translate(1288, 208)">
      <rect width="268" height="34" rx="5" fill="#fff" stroke="#42A5F5" stroke-width="1" />
      <rect width="3" height="34" rx="1" fill="#42A5F5" />
      <text x="134" y="14" text-anchor="middle" font-size="11" font-weight="500" fill="#333">Diesel PR #4993</text>
      <text x="134" y="28" text-anchor="middle" font-size="9" fill="#42A5F5">auto-extension support</text>
    </g>

    <!-- ===== diesel-sqlite-session ===== -->
    <g transform="translate(995, 304)">
      <rect width="270" height="56" rx="6" fill="#fff" stroke="#42A5F5" stroke-width="1.5" />
      <rect width="4" height="56" rx="1" fill="#42A5F5" />
      <text x="135" y="20" text-anchor="middle" font-size="12" font-weight="600" fill="#333">diesel-sqlite-session</text>
      <text x="135" y="36" text-anchor="middle" font-size="10" fill="#42A5F5">git-only, awaiting Diesel release</text>
      <text x="135" y="50" text-anchor="middle" font-size="9" fill="#888">PatchSet apply/generate via Diesel</text>
    </g>

    <!-- ===== Local SQLite ===== -->
    <g transform="translate(1288, 304)">
      <rect width="270" height="56" rx="6" fill="#fff" stroke="#4CAF50" stroke-width="1.5" />
      <rect width="4" height="56" rx="1" fill="#4CAF50" />
      <text x="135" y="20" text-anchor="middle" font-size="12" font-weight="600" fill="#333">Local SQLite</text>
      <text x="135" y="36" text-anchor="middle" font-size="10" font-family="monospace" fill="#4CAF50">diesel</text>
      <text x="135" y="50" text-anchor="middle" font-size="9" fill="#888">app tables, pending_ops, aggregates</text>
    </g>

    <!-- ===== Sync Engine ===== -->
    <g transform="translate(995, 372)">
      <rect width="270" height="56" rx="6" fill="#fff" stroke="#4CAF50" stroke-width="1.5" />
      <rect width="4" height="56" rx="1" fill="#4CAF50" />
      <text x="135" y="20" text-anchor="middle" font-size="12" font-weight="600" fill="#333">Sync Engine</text>
      <text x="135" y="36" text-anchor="middle" font-size="10" font-family="monospace" fill="#4CAF50">tokio-tungstenite</text>
      <text x="135" y="50" text-anchor="middle" font-size="9" fill="#888">reconnect loop, exp backoff</text>
    </g>

    <!-- ===== geolite ===== -->
    <g transform="translate(1288, 372)">
      <rect width="270" height="56" rx="6" fill="#fff" stroke="#42A5F5" stroke-width="1.5" />
      <rect width="4" height="56" rx="1" fill="#42A5F5" />
      <text x="135" y="20" text-anchor="middle" font-size="11" font-weight="600" fill="#333">geolite</text>
      <text x="135" y="36" text-anchor="middle" font-size="9" fill="#42A5F5">PostGIS-like spatial, WASM-compat</text>
    </g>

    <!-- WS arrow from transport to native sync engine -->
    <line x1="970" y1="400" x2="995" y2="400" stroke="#F9A825" stroke-width="2" marker-end="url(#arrow-yellow)" />
  </g>

  <!-- ==================== BROWSER/WASM CLIENT ZONE ==================== -->
  <g id="wasm-client-zone">
    <!-- Zone background -->
    <rect x="980" y="472" width="600" height="540" rx="10" fill="#F3E5F5" stroke="#BA68C8" stroke-width="1.5" />
    <text x="1280" y="496" text-anchor="middle" font-size="15" font-weight="700" fill="#555">Browser / WASM Client</text>
    <text x="1280" y="512" text-anchor="middle" font-size="10" fill="#EF5350">connetto-client-wasm · not started</text>

    <!-- ===== Browser Tab sub-zone ===== -->
    <rect x="995" y="524" width="570" height="150" rx="8" fill="#FCE4EC" stroke="#EF5350" stroke-width="1" />
    <rect x="995" y="524" width="5" height="150" rx="2" fill="#EF5350" />
    <text x="1280" y="544" text-anchor="middle" font-size="12" font-weight="600" fill="#C62828">Browser Tab</text>

    <!-- Dioxus App (WASM) -->
    <g transform="translate(1008, 554)">
      <rect width="260" height="36" rx="5" fill="#fff" stroke="#EF5350" stroke-width="1" />
      <rect width="3" height="36" rx="1" fill="#EF5350" />
      <text x="130" y="14" text-anchor="middle" font-size="11" font-weight="500" fill="#333">Dioxus App (WASM)</text>
      <text x="130" y="28" text-anchor="middle" font-size="9" fill="#888">UI rendering, reactive signals</text>
    </g>

    <!-- ConnettoProxyConnection -->
    <g transform="translate(1008, 600)">
      <rect width="544" height="60" rx="5" fill="#fff" stroke="#EF5350" stroke-width="1" />
      <rect width="3" height="60" rx="1" fill="#EF5350" />
      <text x="272" y="16" text-anchor="middle" font-size="11" font-weight="600" fill="#C62828">ConnettoProxyConnection</text>
      <text x="272" y="30" text-anchor="middle" font-size="10" fill="#EF5350">custom diesel_async connection</text>
      <text x="272" y="44" text-anchor="middle" font-size="9" fill="#888">SQL + binds over postMessage → rows back</text>
    </g>

    <!-- ===== postMessage line ===== -->
    <g>
      <line x1="1280" y1="674" x2="1280" y2="708" stroke="#9C27B0" stroke-width="2" />
      <text x="1296" y="695" font-size="9" font-weight="600" fill="#9C27B0">⑦ postMessage</text>
    </g>

    <!-- ===== SharedWorker sub-zone ===== -->
    <rect x="995" y="708" width="570" height="290" rx="8" fill="#EDE7F6" stroke="#7E57C2" stroke-width="1" />
    <rect x="995" y="708" width="5" height="290" rx="2" fill="#EF5350" />
    <text x="1280" y="728" text-anchor="middle" font-size="12" font-weight="600" fill="#C62828">SharedWorker</text>
    <text x="1280" y="742" text-anchor="middle" font-size="9" fill="#888">single connection per origin, all tabs share</text>

    <!-- ConnettoWorkerConnection -->
    <g transform="translate(1008, 750)">
      <rect width="260" height="80" rx="5" fill="#fff" stroke="#EF5350" stroke-width="1" />
      <rect width="3" height="80" rx="1" fill="#EF5350" />
      <text x="130" y="16" text-anchor="middle" font-size="11" font-weight="600" fill="#C62828">ConnettoWorkerConnection</text>
      <text x="130" y="32" text-anchor="middle" font-size="9" fill="#888">same hooks as native:</text>
      <text x="130" y="46" text-anchor="middle" font-size="9" fill="#42A5F5">PR #4969 · #4976 · #4975</text>
      <text x="130" y="60" text-anchor="middle" font-size="9" fill="#888">aggregate routing, mutation intercept</text>
    </g>

    <!-- diesel-sqlite-session (WASM) -->
    <g transform="translate(1288, 750)">
      <rect width="260" height="40" rx="5" fill="#fff" stroke="#42A5F5" stroke-width="1" />
      <rect width="3" height="40" rx="1" fill="#42A5F5" />
      <text x="130" y="16" text-anchor="middle" font-size="11" font-weight="600" fill="#333">diesel-sqlite-session</text>
      <text x="130" y="32" text-anchor="middle" font-size="9" fill="#42A5F5">same as native (git-only)</text>
    </g>

    <!-- sqlite-wasm-rs -->
    <g transform="translate(1008, 842)">
      <rect width="260" height="70" rx="5" fill="#fff" stroke="#4CAF50" stroke-width="1.5" />
      <rect width="3" height="70" rx="1" fill="#4CAF50" />
      <text x="130" y="16" text-anchor="middle" font-size="11" font-weight="600" fill="#333">sqlite-wasm-rs</text>
      <text x="130" y="32" text-anchor="middle" font-size="10" font-family="monospace" fill="#4CAF50">v0.5.2 · Spxg · crates.io</text>
      <text x="130" y="46" text-anchor="middle" font-size="9" fill="#888">SQLite over OPFS</text>
      <text x="130" y="58" text-anchor="middle" font-size="9" fill="#888">SyncAccessHandlePoolVFS</text>
    </g>

    <!-- Diesel PR #4993 (WASM nice-to-have) -->
    <g transform="translate(1288, 802)">
      <rect width="260" height="40" rx="5" fill="#fff" stroke="#42A5F5" stroke-width="1" />
      <rect width="3" height="40" rx="1" fill="#42A5F5" />
      <text x="130" y="16" text-anchor="middle" font-size="11" font-weight="500" fill="#333">Diesel PR #4993</text>
      <text x="130" y="32" text-anchor="middle" font-size="9" fill="#42A5F5">auto-extension (nice-to-have for WASM)</text>
    </g>

    <!-- geolite (WASM) -->
    <g transform="translate(1288, 852)">
      <rect width="260" height="40" rx="5" fill="#fff" stroke="#42A5F5" stroke-width="1" />
      <rect width="3" height="40" rx="1" fill="#42A5F5" />
      <text x="130" y="16" text-anchor="middle" font-size="11" font-weight="600" fill="#333">geolite</text>
      <text x="130" y="32" text-anchor="middle" font-size="9" fill="#42A5F5">same as native</text>
    </g>

    <!-- WebSocket via web-sys -->
    <g transform="translate(1008, 924)">
      <rect width="260" height="40" rx="5" fill="#fff" stroke="#4CAF50" stroke-width="1.5" />
      <rect width="3" height="40" rx="1" fill="#4CAF50" />
      <text x="130" y="16" text-anchor="middle" font-size="11" font-weight="600" fill="#333">WebSocket (web-sys)</text>
      <text x="130" y="32" text-anchor="middle" font-size="9" fill="#4CAF50">SharedWorker API</text>
    </g>

    <!-- WS arrow from transport to WASM worker -->
    <line x1="970" y1="944" x2="1008" y2="944" stroke="#F9A825" stroke-width="2" marker-end="url(#arrow-yellow)" />
  </g>


  <!-- ==================== DATA FLOW ARROWS (numbered) ==================== -->
  <g id="data-flow-arrows" font-size="9">

    <!-- ① Mutation: client → server → PG -->
    <g>
      <path d="M 995 150 L 925 150 L 863 150" fill="none" stroke="#EF5350" stroke-width="1.5" marker-end="url(#arrow-red)" />
      <rect x="892" y="134" width="84" height="14" rx="2" fill="#FAFAFA" opacity="0.9" />
      <text x="934" y="144" text-anchor="middle" fill="#EF5350" font-weight="600">① Mutation</text>
    </g>

    <!-- ② CDC push: server → transport → client -->
    <g>
      <path d="M 863 300 L 925 300 L 995 300" fill="none" stroke="#42A5F5" stroke-width="1.5" marker-end="url(#arrow-blue)" />
      <rect x="892" y="286" width="66" height="14" rx="2" fill="#FAFAFA" opacity="0.9" />
      <text x="925" y="296" text-anchor="middle" fill="#42A5F5" font-weight="600">② CDC push</text>
    </g>

    <!-- ③ Aggregates: server → client aggregates table -->
    <g>
      <path d="M 863 360 L 925 360 L 995 360" fill="none" stroke="#7E57C2" stroke-width="1.5" stroke-dasharray="5 3" marker-end="url(#arrow-purple)" />
      <rect x="892" y="346" width="76" height="14" rx="2" fill="#FAFAFA" opacity="0.9" />
      <text x="930" y="356" text-anchor="middle" fill="#7E57C2" font-weight="600">③ Aggregates</text>
    </g>

    <!-- ④ Reconnect: client → server -->
    <g>
      <path d="M 995 330 L 925 330 L 863 330" fill="none" stroke="#FF8F00" stroke-width="1.5" stroke-dasharray="5 3" marker-end="url(#arrow-orange)" />
      <rect x="892" y="316" width="74" height="14" rx="2" fill="#FAFAFA" opacity="0.9" />
      <text x="929" y="326" text-anchor="middle" fill="#FF8F00" font-weight="600">④ Reconnect</text>
    </g>

    <!-- ⑥ Schema: server → client -->
    <g>
      <path d="M 863 200 L 925 200 L 995 200" fill="none" stroke="#26A69A" stroke-width="1.5" stroke-dasharray="5 3" marker-end="url(#arrow-teal)" />
      <rect x="892" y="186" width="66" height="14" rx="2" fill="#FAFAFA" opacity="0.9" />
      <text x="925" y="196" text-anchor="middle" fill="#26A69A" font-weight="600">⑥ Schema</text>
    </g>

  </g>

  <!-- Title -->
  <text x="20" y="1040" font-size="11" fill="#999">connetto-rs architecture diagram — all components, status colors, and data flows</text>
</svg>
